<?xml version="1.0" encoding="UTF-8"?>
<svg width="34px" height="34px" viewBox="0 0 34 34" version="1.1" xmlns="http://www.w3.org/2000/svg" xmlns:xlink="http://www.w3.org/1999/xlink">
    <!-- Generator: Sketch 41.2 (35397) - http://www.bohemiancoding.com/sketch -->
    <title>Slice 2</title>
    <desc>Created with Sketch.</desc>
    <defs></defs>
    <g id="Page-1" stroke="none" stroke-width="1" fill="none" fill-rule="evenodd">
        <path d="M29,8.475 C28.1,8.2375 22.55,8 17,8 C11.45,8 5.9,8.225625 5,8.45125 C2.66,9.06875 2,13.225 2,17.5 C2,21.763125 2.66,25.93125 5,26.536875 C5.9,26.774375 11.45,27 17,27 C22.55,27 28.1,26.774375 29,26.536875 C31.34,25.93125 32,21.763125 32,17.5 C32,13.225 31.34,9.080625 29,8.475 Z M14,23.4375 L14,12.75 L21.2,18.09375 L14,23.4375 Z" id="Combined-Shape" fill="#FFFFFF"></path>
    </g>
</svg>