<?xml version="1.0" encoding="UTF-8"?>
<svg width="16px" height="16px" viewBox="0 0 16 16" version="1.1" xmlns="http://www.w3.org/2000/svg" xmlns:xlink="http://www.w3.org/1999/xlink">
    <!-- Generator: Sketch 41.2 (35397) - http://www.bohemiancoding.com/sketch -->
    <title>v</title>
    <desc>Created with Sketch.</desc>
    <defs></defs>
    <g id="Page-1" stroke="none" stroke-width="1" fill="none" fill-rule="evenodd">
        <path d="M5.60888889,7.46222222 C6.24888889,8.72 7.28,9.75111111 8.53777778,10.3911111 L9.51555556,9.41333333 C9.64,9.28888889 9.81333333,9.25333333 9.96888889,9.30222222 C10.4666667,9.46666667 11,9.55555556 11.5555556,9.55555556 C11.8010154,9.55555556 12,9.75454011 12,10 L12,11.5555556 C12,11.8010154 11.8010154,12 11.5555556,12 C7.38273745,12 4,8.61726255 4,4.44444444 C4,4.32657045 4.04682526,4.21352427 4.13017476,4.13017476 C4.21352427,4.04682526 4.32657045,4 4.44444444,4 L6,4 C6.24545989,4 6.44444444,4.19898456 6.44444444,4.44444444 C6.44444444,5 6.53333333,5.53333333 6.69777778,6.03111111 C6.74666667,6.18666667 6.71111111,6.36 6.58666667,6.48444444 L5.60888889,7.46222222 Z" id="Shape" fill="#000000" transform="translate(8.000000, 8.000000) rotate(21.000000) translate(-8.000000, -8.000000) "></path>
    </g>
</svg>