<?xml version="1.0" encoding="UTF-8"?>
<svg width="34px" height="34px" viewBox="0 0 34 34" version="1.1" xmlns="http://www.w3.org/2000/svg" xmlns:xlink="http://www.w3.org/1999/xlink">
    <!-- Generator: Sketch 41.2 (35397) - http://www.bohemiancoding.com/sketch -->
    <title>Slice 2</title>
    <desc>Created with Sketch.</desc>
    <defs></defs>
    <g id="Page-1" stroke="none" stroke-width="1" fill="none" fill-rule="evenodd">
        <path d="M30,30 L24.2222222,30 L24.2222222,20.25 C24.2222222,18.7188889 22.5033333,17.4477778 20.9722222,17.4477778 C19.4411111,17.4477778 18.4444444,18.7188889 18.4444444,20.25 L18.4444444,30 L12.6666667,30 L12.6666667,12.6666667 L18.4444444,12.6666667 L18.4444444,15.5555556 C19.3977778,14.01 21.8533333,13.0133333 23.5,13.0133333 C27.1111111,13.0133333 30,15.96 30,19.5277778 L30,30 L30,30 Z M9.77777778,30 L4,30 L4,12.6666667 L9.77777778,12.6666667 L9.77777778,30 L9.77777778,30 Z M6.88888889,4 C8.48437817,4 9.77777778,5.29339961 9.77777778,6.88888889 C9.77777778,8.48437817 8.48437817,9.77777778 6.88888889,9.77777778 C5.29339961,9.77777778 4,8.48437817 4,6.88888889 C4,5.29339961 5.29339961,4 6.88888889,4 Z" id="Shape" fill="#FFFFFF"></path>
    </g>
</svg>