<?xml version="1.0" encoding="UTF-8"?>
<svg width="29px" height="29px" viewBox="0 0 29 29" version="1.1" xmlns="http://www.w3.org/2000/svg" xmlns:xlink="http://www.w3.org/1999/xlink">
    <!-- Generator: Sketch 41.2 (35397) - http://www.bohemiancoding.com/sketch -->
    <title>Slice 3</title>
    <desc>Created with Sketch.</desc>
    <defs></defs>
    <g id="Page-1" stroke="none" stroke-width="1" fill="none" fill-rule="evenodd">
        <path d="M15,14.5 C13.6192881,14.5 12.5,13.3807119 12.5,12 C12.5,11.3369588 12.7633921,10.701074 13.232233,10.232233 C13.701074,9.7633921 14.3369588,9.5 15,9.5 C16.3807119,9.5 17.5,10.6192881 17.5,12 C17.5,12.6630412 17.2366079,13.298926 16.767767,13.767767 C16.298926,14.2366079 15.6630412,14.5 15,14.5 L15,14.5 Z M15,5 C11.1340068,5 8,8.13400675 8,12 C8,17.25 15,25 15,25 C15,25 22,17.25 22,12 C22,8.13400675 18.8659932,5 15,5 L15,5 Z" id="Shape" fill="#268446"></path>
    </g>
</svg>