<?xml version="1.0" encoding="UTF-8"?>
<svg width="98px" height="111px" viewBox="0 0 98 111" version="1.1" xmlns="http://www.w3.org/2000/svg" xmlns:xlink="http://www.w3.org/1999/xlink">
    <!-- Generator: Sketch 41.2 (35397) - http://www.bohemiancoding.com/sketch -->
    <title>Slice</title>
    <desc>Created with Sketch.</desc>
    <defs></defs>
    <g id="Page-1" stroke="none" stroke-width="1" fill="none" fill-rule="evenodd">
        <path d="M53.125,42.7 L75.8125,42.7 L53.125,20.15 L53.125,42.7 L53.125,42.7 Z M24.25,14 L57.25,14 L82,38.6 L82,87.8 C82,92.3287349 78.3063492,96 73.75,96 L24.25,96 C19.67125,96 16,92.31 16,87.8 L16,22.2 C16,17.649 19.67125,14 24.25,14 L24.25,14 Z M24.25,87.8 L61.375,87.8 L73.75,87.8 L73.75,55 L57.25,71.4 L49,63.2 L24.25,87.8 L24.25,87.8 Z M32.5,42.7 C27.9436508,42.7 24.25,46.3712651 24.25,50.9 C24.25,55.4287349 27.9436508,59.1 32.5,59.1 C37.0563492,59.1 40.75,55.4287349 40.75,50.9 C40.75,46.3712651 37.0563492,42.7 32.5,42.7 Z" id="Shape" fill="#D6D6D6"></path>
    </g>
</svg>